<svg xmlns="http://www.w3.org/2000/svg" viewBox="0 0 319.5 319.5">
  <rect x="35.5" y="73.3" width="80.4" height="30.4" rx="4" ry="4" fill="#1a1a1a"/>
  <rect x="119.6" y="73.3" width="80.4" height="30.4" rx="4" ry="4" fill="#2f2e2b"/>
  <rect x="203.6" y="73.3" width="80.4" height="30.4" rx="4" ry="4" fill="#252220"/>
  <rect x="35.5" y="108.9" width="39.2" height="30.4" rx="4" ry="4" fill="#242424"/>
  <rect x="77.7" y="108.9" width="80.4" height="30.4" rx="4" ry="4" fill="#3a3a3a"/>
  <rect x="161.4" y="108.9" width="80.4" height="30.4" rx="4" ry="4" fill="#1a1a1a"/>
  <rect x="244.8" y="108.9" width="39.2" height="30.4" rx="4" ry="4" fill="#2f2e2b"/>
  <rect x="35.5" y="145" width="80.4" height="30.4" rx="4" ry="4" fill="#252220"/>
  <rect x="203.6" y="145" width="80.4" height="30.4" rx="4" ry="4" fill="#242424"/>
  <rect x="35.5" y="180.3" width="39.2" height="30.4" rx="4" ry="4" fill="#3a3a3a"/>
  <rect x="77.7" y="180.3" width="80.4" height="30.4" rx="4" ry="4" fill="#1a1a1a"/>
  <rect x="161.4" y="180.3" width="80.4" height="30.4" rx="4" ry="4" fill="#2f2e2b"/>
  <rect x="244.8" y="180.3" width="39.2" height="30.4" rx="4" ry="4" fill="#252220"/>
  <rect x="35.5" y="215.8" width="80.4" height="30.4" rx="4" ry="4" fill="#242424"/>
  <rect x="119.6" y="215.8" width="80.4" height="30.4" rx="4" ry="4" fill="#3a3a3a"/>
  <rect x="203.6" y="215.8" width="80.4" height="30.4" rx="4" ry="4" fill="#1a1a1a"/>
  <rect x="119.6" y="145" width="80.4" height="30.4" rx="4" ry="4" fill="#FFD53D"/>
</svg>
